# xmcd
#
# Track frame offsets: 
#        150
#        16637
#        31783
#        46169
#
# Disc length: 799 seconds
#
# Revision: 0
# Processed by: cddbd v1.5.2PL0 Copyright (c) Steve Scherf et al.
# Submitted via: ExactAudioCopy v0.99pb3
#
DISCID=1c031d04
DTITLE=ASH - Kablammo! (Bonus Disc)
DYEAR=2015
DGENRE=Pop Rock
TTITLE0=Jevenilia
TTITLE1=Terraform
TTITLE2=This Time Tomorrow
TTITLE3=Anything is Possible
EXTD=
EXTT0=
EXTT1=
EXTT2=
EXTT3=
PLAYORDER=
